<?xml version="1.0" encoding="UTF-8"?>
<svg version="1.1" xmlns="http://www.w3.org/2000/svg" width="600" height="300">
<path d="M0 0 C99 0 198 0 300 0 C300 99 300 198 300 300 C201 300 102 300 0 300 C0 201 0 102 0 0 Z " fill="#FDFEFE" transform="translate(150,0)"/>
<path d="M0 0 C66.99 0 133.98 0 203 0 C203 23.76 203 47.52 203 72 C199.53644824 70.26822412 197.24236295 68.69691851 194.3125 66.25 C193.34570312 65.44820313 192.37890625 64.64640625 191.3828125 63.8203125 C190.84688477 63.37333008 190.31095703 62.92634766 189.75878906 62.46582031 C186.41031848 59.67511829 183.04930184 56.89961717 179.6875 54.125 C178.95853516 53.52284668 178.22957031 52.92069336 177.47851562 52.30029297 C172.97383708 48.59061637 168.421617 44.95375908 163.8125 41.375 C158.39889507 37.16889636 153.17518293 32.77718611 147.9921875 28.29101562 C142.1981486 23.28227357 136.37894109 18.2526274 130 14 C129.77957031 14.55171875 129.55914062 15.1034375 129.33203125 15.671875 C120.86018197 30.47897815 99.58751333 40.35825052 84.0625 44.875 C80.03993463 45.95680274 77.38897484 46 73 46 C73 53.92 73 61.84 73 70 C75.64 68.68 78.28 67.36 81 66 C83.4698287 64.89554327 85.94865409 63.81090741 88.4375 62.75 C89.06076172 62.481875 89.68402344 62.21375 90.32617188 61.9375 C94.86842315 60 94.86842315 60 96 60 C96 67.59 96 75.18 96 83 C85.5625 87.4375 85.5625 87.4375 82.26782227 88.83374023 C81.41760498 89.19669189 80.5673877 89.55964355 79.69140625 89.93359375 C78.37958374 90.4913147 78.37958374 90.4913147 77.04125977 91.06030273 C75.05072685 91.83373192 75.05072685 91.83373192 74 93 C73.84313751 94.55948542 73.74923361 96.12542668 73.68359375 97.69140625 C73.64169922 98.63564453 73.59980469 99.57988281 73.55664062 100.55273438 C73.51732422 101.54595703 73.47800781 102.53917969 73.4375 103.5625 C73.37272461 105.05813477 73.37272461 105.05813477 73.30664062 106.58398438 C73.20019702 109.0558415 73.09818072 111.5278031 73 114 C73.62567871 113.72736328 74.25135742 113.45472656 74.89599609 113.17382812 C77.72071423 111.94546157 80.54781071 110.72266758 83.375 109.5 C84.85226562 108.85611328 84.85226562 108.85611328 86.359375 108.19921875 C87.77089844 107.59013672 87.77089844 107.59013672 89.2109375 106.96875 C90.08024902 106.59169922 90.94956055 106.21464844 91.84521484 105.82617188 C94 105 94 105 96 105 C96 112.26 96 119.52 96 127 C93.669375 128.093125 91.33875 129.18625 88.9375 130.3125 C88.21812256 130.65063721 87.49874512 130.98877441 86.75756836 131.3371582 C86.16596924 131.61390381 85.57437012 131.89064941 84.96484375 132.17578125 C84.07720337 132.59210815 84.07720337 132.59210815 83.17163086 133.0168457 C80.13523625 134.39150125 77.06357672 135.68703855 74 137 C73.67 147.56 73.34 158.12 73 169 C116.23 169 159.46 169 204 169 C204 180.22 204 191.44 204 203 C136.68 203 69.36 203 0 203 C0 191.78 0 180.56 0 169 C6.57258964 165.71370518 13.07555325 162.57717385 19.8125 159.6875 C20.75303223 159.28088135 21.69356445 158.8742627 22.66259766 158.45532227 C26.10698714 156.96692916 29.55333059 155.48310274 33 154 C38.77767285 151.51356094 44.55454177 149.02527391 50.33016968 146.53408813 C52.85962877 145.44412359 55.39035182 144.35713193 57.92114258 143.27026367 C59.48654577 142.59566772 61.0518965 141.92095 62.6171875 141.24609375 C63.34841324 140.93299255 64.07963898 140.61989136 64.83302307 140.29730225 C68.15522557 139.02968404 68.15522557 139.02968404 71 137 C71.15686249 135.44051458 71.25076639 133.87457332 71.31640625 132.30859375 C71.35830078 131.36435547 71.40019531 130.42011719 71.44335938 129.44726562 C71.48267578 128.45404297 71.52199219 127.46082031 71.5625 126.4375 C71.62727539 124.94186523 71.62727539 124.94186523 71.69335938 123.41601562 C71.79980298 120.9441585 71.90181928 118.4721969 72 116 C55.26073635 122.96944059 38.65625137 130.210598 22.10058594 137.60351562 C21.34978256 137.93875244 20.59897919 138.27398926 19.82542419 138.61938477 C18.42251192 139.24616883 17.01987099 139.87356078 15.61756897 140.50170898 C14.35701806 141.06547371 13.09550611 141.62709584 11.83291626 142.1862793 C10.57735819 142.74368261 9.32485508 143.30800403 8.07504272 143.87817383 C5.19748753 145.16585424 3.19113503 146 0 146 C0 138.74 0 131.48 0 124 C16.56469556 116.68119268 33.13151814 109.36730288 49.72045898 102.10357666 C51.10859666 101.49572982 52.49661865 100.88761872 53.88452148 100.27923584 C55.824989 99.42880068 57.76593059 98.5794576 59.70703125 97.73046875 C60.8050708 97.24989014 61.90311035 96.76931152 63.03442383 96.27416992 C65.67202045 95.14091753 68.33458017 94.06616793 71 93 C71.33 85.74 71.66 78.48 72 71 C69.03645412 72.27009109 66.0729102 73.54018672 63.109375 74.81030273 C60.56124214 75.90236559 58.01306006 76.99431352 55.46484375 78.08618164 C49.60467176 80.5972688 43.74476273 83.10895101 37.88671875 85.625 C36.09116729 86.39588332 34.29559547 87.1667192 32.5 87.9375 C31.64873535 88.30311035 30.7974707 88.6687207 29.92041016 89.04541016 C25.35640229 91.00218895 20.780685 92.92488973 16.1875 94.8125 C12.85469302 96.18371201 9.63734988 97.65502381 6.4375 99.3125 C3 101 3 101 0 101 C0 67.67 0 34.34 0 0 Z " fill="#DA0531" transform="translate(198,49)"/>
<path d="M0 0 C67.32 0 134.64 0 204 0 C204 56.1 204 112.2 204 170 C160.77 170 117.54 170 73 170 C73 159.44 73 148.88 73 138 C80.3463194 134.3268403 87.43337698 131.0794396 95 128 C95.33 120.74 95.66 113.48 96 106 C89.55025417 108.9557308 89.55025417 108.9557308 83.10620117 111.92382812 C82.30158447 112.28927734 81.49696777 112.65472656 80.66796875 113.03125 C79.84578857 113.40830078 79.0236084 113.78535156 78.17651367 114.17382812 C76 115 76 115 73 115 C72.85494825 111.56294295 72.76601986 108.12666967 72.6875 104.6875 C72.64560547 103.71103516 72.60371094 102.73457031 72.56054688 101.72851562 C72.51491362 99.07266021 72.54749621 96.61778809 73 94 C75.0078125 92.0625 75.0078125 92.0625 78 91 C79.30940242 90.39931143 80.61514553 89.79060897 81.91796875 89.17578125 C83.33958079 88.55111361 84.76279726 87.93008607 86.1875 87.3125 C86.91130859 86.99216797 87.63511719 86.67183594 88.38085938 86.34179688 C93.74851746 84 93.74851746 84 96 84 C95.67 76.74 95.34 69.48 95 62 C88.88167704 64.5865277 88.88167704 64.5865277 82.7644043 67.17553711 C82.00039307 67.4978833 81.23638184 67.82022949 80.44921875 68.15234375 C79.66893311 68.48226318 78.88864746 68.81218262 78.0847168 69.15209961 C76.41423588 69.83152111 74.71082088 70.42972637 73 71 C73 63.08 73 55.16 73 47 C76.6815625 46.2575 76.6815625 46.2575 80.4375 45.5 C99.63514689 41.19853016 115.16825359 30.7296671 129 17 C129.33 16.34 129.66 15.68 130 15 C133.94565602 16.6583192 136.93412075 19.34717955 140.125 22.125 C141.29076648 23.12604926 142.45744121 24.12604175 143.625 25.125 C144.48544922 25.86169922 144.48544922 25.86169922 145.36328125 26.61328125 C148.37437348 29.16444531 151.47101407 31.60621308 154.5625 34.05859375 C158.03886948 36.8274329 161.47006384 39.65030517 164.90625 42.46875 C169.14126529 45.93376251 173.39303556 49.37801068 177.64355469 52.82397461 C181.35409319 55.83647796 185.05171969 58.86360964 188.734375 61.91015625 C189.50958496 62.55122314 190.28479492 63.19229004 191.08349609 63.8527832 C192.58785358 65.09829375 194.09083028 66.34547432 195.59228516 67.59448242 C196.27081543 68.15627197 196.9493457 68.71806152 197.6484375 69.296875 C198.24833496 69.79541992 198.84823242 70.29396484 199.46630859 70.80761719 C201.0046227 72.08394534 201.0046227 72.08394534 203 73 C203 49.24 203 25.48 203 1 C136.01 1 69.02 1 0 1 C0 0.67 0 0.34 0 0 Z " fill="#FC8108" transform="translate(198,48)"/>
<path d="M0 0 C67.32 0 134.64 0 204 0 C204 11.22 204 22.44 204 34 C136.68 34 69.36 34 0 34 C0 22.78 0 11.56 0 0 Z " fill="#0055B7" transform="translate(198,218)"/>
<path d="M0 0 C0 50.82 0 101.64 0 154 C-19.14 154 -38.28 154 -58 154 C-58 143.44 -58 132.88 -58 122 C-50.6536806 118.3268403 -43.56662302 115.0794396 -36 112 C-35.67 104.74 -35.34 97.48 -35 90 C-41.44974583 92.9557308 -41.44974583 92.9557308 -47.89379883 95.92382812 C-48.69841553 96.28927734 -49.50303223 96.65472656 -50.33203125 97.03125 C-51.15421143 97.40830078 -51.9763916 97.78535156 -52.82348633 98.17382812 C-55 99 -55 99 -58 99 C-58.14505175 95.56294295 -58.23398014 92.12666967 -58.3125 88.6875 C-58.35439453 87.71103516 -58.39628906 86.73457031 -58.43945312 85.72851562 C-58.48508638 83.07266021 -58.45250379 80.61778809 -58 78 C-55.9921875 76.0625 -55.9921875 76.0625 -53 75 C-51.69059758 74.39931143 -50.38485447 73.79060897 -49.08203125 73.17578125 C-47.66041921 72.55111361 -46.23720274 71.93008607 -44.8125 71.3125 C-44.08869141 70.99216797 -43.36488281 70.67183594 -42.61914062 70.34179688 C-37.25148254 68 -37.25148254 68 -35 68 C-35.33 60.74 -35.66 53.48 -36 46 C-42.11832296 48.5865277 -42.11832296 48.5865277 -48.2355957 51.17553711 C-48.99960693 51.4978833 -49.76361816 51.82022949 -50.55078125 52.15234375 C-51.33106689 52.48226318 -52.11135254 52.81218262 -52.9152832 53.15209961 C-54.58576412 53.83152111 -56.28917912 54.42972637 -58 55 C-58 47.08 -58 39.16 -58 31 C-55.545625 30.505 -53.09125 30.01 -50.5625 29.5 C-31.6969729 25.27294571 -17.19953494 15.24561449 -3.3359375 2.125 C-1 0 -1 0 0 0 Z " fill="#FEFDFD" transform="translate(329,64)"/>
<path d="M0 0 C0.33 0 0.66 0 1 0 C1 7.59 1 15.18 1 23 C3.64 21.68 6.28 20.36 9 19 C11.4698287 17.89554327 13.94865409 16.81090741 16.4375 15.75 C17.06076172 15.481875 17.68402344 15.21375 18.32617188 14.9375 C22.86842315 13 22.86842315 13 24 13 C24 20.59 24 28.18 24 36 C13.5625 40.4375 13.5625 40.4375 10.26782227 41.83374023 C8.99249634 42.37816772 8.99249634 42.37816772 7.69140625 42.93359375 C6.81685791 43.30540771 5.94230957 43.67722168 5.04125977 44.06030273 C3.05072685 44.83373192 3.05072685 44.83373192 2 46 C1.84313751 47.55948542 1.74923361 49.12542668 1.68359375 50.69140625 C1.64169922 51.63564453 1.59980469 52.57988281 1.55664062 53.55273438 C1.51732422 54.54595703 1.47800781 55.53917969 1.4375 56.5625 C1.37272461 58.05813477 1.37272461 58.05813477 1.30664062 59.58398438 C1.20019702 62.0558415 1.09818072 64.5278031 1 67 C1.62567871 66.72736328 2.25135742 66.45472656 2.89599609 66.17382812 C5.72071423 64.94546157 8.54781071 63.72266758 11.375 62.5 C12.35984375 62.07074219 13.3446875 61.64148438 14.359375 61.19921875 C15.30039062 60.79316406 16.24140625 60.38710937 17.2109375 59.96875 C18.51490479 59.40317383 18.51490479 59.40317383 19.84521484 58.82617188 C22 58 22 58 24 58 C24 65.26 24 72.52 24 80 C21.669375 81.093125 19.33875 82.18625 16.9375 83.3125 C16.21812256 83.65063721 15.49874512 83.98877441 14.75756836 84.3371582 C13.87016968 84.75227661 13.87016968 84.75227661 12.96484375 85.17578125 C12.3730835 85.45333252 11.78132324 85.73088379 11.17163086 86.0168457 C8.13523625 87.39150125 5.06357672 88.68703855 2 90 C1.67 100.56 1.34 111.12 1 122 C-22.76 122 -46.52 122 -71 122 C-68.74945263 119.74945263 -66.97837554 119.00704169 -64.05078125 117.77734375 C-62.99286377 117.32915283 -61.93494629 116.88096191 -60.8449707 116.41918945 C-59.67925537 115.93023193 -58.51354004 115.44127441 -57.3125 114.9375 C-54.79115405 113.86837388 -52.27029766 112.79815206 -49.75 111.7265625 C-49.07185745 111.43870377 -48.3937149 111.15084503 -47.69502258 110.85426331 C-39.26603932 107.27197703 -30.86571873 103.62371778 -22.46835327 99.9680481 C-20.69555581 99.19671304 -18.92229965 98.42643139 -17.14859009 97.65719604 C-14.64622944 96.5719416 -12.14520912 95.48365654 -9.64453125 94.39453125 C-8.88539429 94.06589081 -8.12625732 93.73725037 -7.34411621 93.39865112 C-3.92885926 92.08547143 -3.92885926 92.08547143 -1 90 C-0.84313751 88.44051458 -0.74923361 86.87457332 -0.68359375 85.30859375 C-0.64169922 84.36435547 -0.59980469 83.42011719 -0.55664062 82.44726562 C-0.51732422 81.45404297 -0.47800781 80.46082031 -0.4375 79.4375 C-0.37272461 77.94186523 -0.37272461 77.94186523 -0.30664062 76.41601562 C-0.20019702 73.9441585 -0.09818072 71.4721969 0 69 C-16.73926365 75.96944059 -33.34374863 83.210598 -49.89941406 90.60351562 C-50.65021744 90.93875244 -51.40102081 91.27398926 -52.17457581 91.61938477 C-53.57748808 92.24616883 -54.98012901 92.87356078 -56.38243103 93.50170898 C-57.64298194 94.06547371 -58.90449389 94.62709584 -60.16708374 95.1862793 C-61.42264181 95.74368261 -62.67514492 96.30800403 -63.92495728 96.87817383 C-66.80251247 98.16585424 -68.80886497 99 -72 99 C-72 91.74 -72 84.48 -72 77 C-55.43530444 69.68119268 -38.86848186 62.36730288 -22.27954102 55.10357666 C-20.89140334 54.49572982 -19.50338135 53.88761872 -18.11547852 53.27923584 C-16.175011 52.42880068 -14.23406941 51.5794576 -12.29296875 50.73046875 C-11.1949292 50.24989014 -10.09688965 49.76931152 -8.96557617 49.27416992 C-6.32545324 48.13983209 -3.67361527 47.05252881 -1 46 C-1.00523682 45.4237085 -1.01047363 44.84741699 -1.01586914 44.25366211 C-1.13100358 29.47127399 -0.77597347 14.76206983 0 0 Z " fill="#FC840D" transform="translate(270,96)"/>
<path d="M0 0 C0 10.23 0 20.46 0 31 C-23.43 31 -46.86 31 -71 31 C-68.74945263 28.74945263 -66.97837554 28.00704169 -64.05078125 26.77734375 C-62.99294434 26.32907227 -61.93510742 25.88080078 -60.84521484 25.41894531 C-59.67941895 24.93006836 -58.51362305 24.44119141 -57.3125 23.9375 C-54.78973975 22.86993225 -52.26751604 21.8011848 -49.74609375 20.73046875 C-49.06774475 20.44281647 -48.38939575 20.15516418 -47.69049072 19.85879517 C-41.95464456 17.42055662 -36.24266844 14.92953145 -30.53515625 12.42578125 C-29.65138809 12.03845322 -28.76761993 11.65112518 -27.85707092 11.25205994 C-24.31164317 9.69773596 -20.76647792 8.14286111 -17.22402954 6.58175659 C-14.7314623 5.48362151 -12.23700746 4.38988034 -9.7421875 3.296875 C-8.98821182 2.96307327 -8.23423615 2.62927155 -7.45741272 2.28535461 C-2.22713173 0 -2.22713173 0 0 0 Z " fill="#FC8205" transform="translate(270,187)"/>
<path d="M0 0 C0 7.26 0 14.52 0 22 C-2.31 23.093125 -4.62 24.18625 -7 25.3125 C-7.71027344 25.65063721 -8.42054688 25.98877441 -9.15234375 26.3371582 C-9.74144531 26.61390381 -10.33054687 26.89064941 -10.9375 27.17578125 C-11.52402344 27.45333252 -12.11054688 27.73088379 -12.71484375 28.0168457 C-16.09204409 29.46983564 -19.55758455 30.70909421 -23 32 C-23 24.74 -23 17.48 -23 10 C-20.834375 8.906875 -18.66875 7.81375 -16.4375 6.6875 C-15.43674438 6.18029419 -15.43674438 6.18029419 -14.41577148 5.6628418 C-3.1411936 0 -3.1411936 0 0 0 Z " fill="#FD8105" transform="translate(294,154)"/>
</svg>
