<?xml version="1.0" encoding="UTF-8"?>
<svg version="1.1" xmlns="http://www.w3.org/2000/svg" width="225" height="225">
<path d="M0 0 C74.25 0 148.5 0 225 0 C225 74.25 225 148.5 225 225 C150.75 225 76.5 225 0 225 C0 150.75 0 76.5 0 0 Z " fill="#D82F2F" transform="translate(0,0)"/>
<path d="M0 0 C8.59977338 -0.17748512 16.7592853 0.49573408 25.234375 2.12109375 C21.65305552 5.85608925 17.85806641 9.05589333 13.734375 12.18359375 C6.50864051 17.77127885 -0.18014239 23.79903044 -6.765625 30.12109375 C-7.28398926 30.61222656 -7.80235352 31.10335937 -8.33642578 31.609375 C-23.01408479 45.55568089 -32.81974289 61.04880725 -41.765625 79.12109375 C-44.34746067 76.61302481 -46.66342081 74.257366 -48.828125 71.37109375 C-63.22447798 54.04215035 -87.75025938 47.62288378 -108.765625 43.12109375 C-108.765625 42.46109375 -108.765625 41.80109375 -108.765625 41.12109375 C-107.29467773 39.98291016 -107.29467773 39.98291016 -105.19921875 38.72265625 C-104.41546875 38.24924805 -103.63171875 37.77583984 -102.82421875 37.28808594 C-101.52677734 36.5247998 -101.52677734 36.5247998 -100.203125 35.74609375 C-99.30851562 35.21661133 -98.41390625 34.68712891 -97.4921875 34.14160156 C-67.64581779 16.6692973 -35.17031002 1.13099545 0 0 Z " fill="#FEFCFC" transform="translate(162.765625,37.87890625)"/>
<path d="M0 0 C0.86087723 -0.00095673 1.72175446 -0.00191345 2.60871887 -0.00289917 C4.41289341 -0.00357459 6.21707047 -0.00176525 8.02124023 0.00244141 C10.77267923 0.00781865 13.52395649 0.00246451 16.27539062 -0.00390625 C18.03776077 -0.00324574 19.80013082 -0.00196514 21.5625 0 C22.78612495 -0.00303635 22.78612495 -0.00303635 24.0344696 -0.00613403 C28.3288703 0.01141576 32.35238821 0.27916974 36.58203125 1.1328125 C36.58203125 1.4628125 36.58203125 1.7928125 36.58203125 2.1328125 C35.64242554 2.13897583 35.64242554 2.13897583 34.68383789 2.14526367 C4.75306024 2.48461489 -22.59060375 8.78720858 -49.05761719 22.8828125 C-51.90941759 24.39307502 -54.77648408 25.87238975 -57.64453125 27.3515625 C-61.9768595 29.58950615 -66.30811225 31.82937615 -70.6328125 34.08203125 C-72.10741943 34.84918457 -72.10741943 34.84918457 -73.61181641 35.63183594 C-76.22056746 37.02722497 -78.76298558 38.50406683 -81.3125 40.00390625 C-84.72479171 41.9100406 -87.18594201 42.72647871 -91.16796875 42.5078125 C-92.17085937 42.46140625 -93.17375 42.415 -94.20703125 42.3671875 C-95.26664063 42.28984375 -96.32625 42.2125 -97.41796875 42.1328125 C-99.19300781 42.04773438 -99.19300781 42.04773438 -101.00390625 41.9609375 C-110.11264088 41.43814037 -110.11264088 41.43814037 -112.41796875 39.1328125 C-78.7241265 18.05420028 -40.56082413 -0.10140395 0 0 Z " fill="#FDF9F9" transform="translate(136.41796875,34.8671875)"/>
<path d="M0 0 C0.91910156 0.08636719 1.83820312 0.17273438 2.78515625 0.26171875 C21.158972 3.69696046 43.65279015 9.8897638 55 26 C51.34977017 24.55595304 47.73635495 23.03834341 44.125 21.5 C22.24861204 12.40712481 -1.11455395 15.21428211 -23.71289062 19.95336914 C-24.38304703 20.09295044 -25.05320343 20.23253174 -25.7436676 20.37634277 C-27.575198 20.7623133 -29.40380134 21.16209888 -31.23217773 21.56274414 C-34 22 -34 22 -36 21 C-33.0766481 18.24322086 -30.05821917 15.60511603 -27 13 C-26.04287109 12.18088135 -26.04287109 12.18088135 -25.06640625 11.34521484 C-22.92111736 9.53400377 -20.74629118 7.76452641 -18.5625 6 C-17.87164307 5.4119458 -17.18078613 4.8238916 -16.46899414 4.21801758 C-10.97705373 -0.13204058 -6.89598225 -0.77466046 0 0 Z " fill="#FDFAFA" transform="translate(58,85)"/>
<path d="M0 0 C0.33 0 0.66 0 1 0 C1 16.17 1 32.34 1 49 C-15.5 49 -32 49 -49 49 C-49 48.67 -49 48.34 -49 48 C-47.72769531 47.79697266 -47.72769531 47.79697266 -46.4296875 47.58984375 C-31.61248218 44.87064233 -19.46551271 39.10419696 -10 27 C-4.63037655 18.5169802 -1.71791006 9.849351 0 0 Z " fill="#FEFAFA" transform="translate(224,176)"/>
<path d="M0 0 C0.33 0 0.66 0 1 0 C1.20302734 1.27230469 1.20302734 1.27230469 1.41015625 2.5703125 C4.06956511 17.0617021 9.72497969 30.08273662 22 39 C29.71420093 43.88257989 37.91721955 47.70245994 47 49 C47 49.33 47 49.66 47 50 C31.49 50 15.98 50 0 50 C0 33.5 0 17 0 0 Z " fill="#FEFBFB" transform="translate(0,175)"/>
<path d="M0 0 C15.51 0 31.02 0 47 0 C47 15.51 47 31.02 47 47 C45.45836956 43.91673913 44.58343633 41.68042214 43.75 38.4375 C39.8462422 25.38670187 31.8747754 14.44672752 19.78759766 7.89770508 C13.43201098 4.70602354 6.94458246 2.48812481 0 1 C0 0.67 0 0.34 0 0 Z " fill="#FEFBFB" transform="translate(178,0)"/>
<path d="M0 0 C15.51 0 31.02 0 47 0 C43.90230172 1.54884914 41.57879006 2.45516461 38.3125 3.3125 C25.68011622 7.0670738 14.84637451 15.69837283 8 27 C4.53226054 33.50080406 2.30595055 39.75791059 1 47 C0.67 47 0.34 47 0 47 C0 31.49 0 15.98 0 0 Z " fill="#FEFBFB" transform="translate(0,0)"/>
<path d="M0 0 C2 1.9375 2 1.9375 3.0625 5.0625 C2.97219183 10.66160664 1.34666033 15.35304475 -2.46484375 19.55078125 C-6.74310247 23.24118763 -10.3524347 25.22417272 -16 25.25 C-16.845625 25.26675781 -17.69125 25.28351563 -18.5625 25.30078125 C-21.55885854 24.85420858 -22.88818105 24.10187553 -25 21.9375 C-26.19496722 17.63872181 -25.67633327 13.47657643 -23.89453125 9.421875 C-18.30319991 0.36781567 -10.4015602 -3.6838859 0 0 Z " fill="#FCF3F3" transform="translate(66,133.0625)"/>
<path d="M0 0 C2.29032526 2.51196964 2.36315292 3.48493726 2.5625 6.8125 C2.20765867 13.21831976 -0.1189908 17.44255592 -4.82421875 21.73046875 C-9.2682519 24.94856172 -13.31514659 25.9221056 -18.78125 25.6015625 C-21.0625 25.125 -21.0625 25.125 -24.25 23.125 C-26.22183928 19.86126603 -26.53116253 17.98351965 -25.76171875 14.2421875 C-23.64983453 7.84754366 -20.14867203 3.27151592 -14.24609375 -0.03125 C-9.34367942 -1.92556395 -4.95586276 -1.41596079 0 0 Z " fill="#FCF4F4" transform="translate(172.0625,132.875)"/>
<path d="M0 0 C1.24330078 -0.01836914 1.24330078 -0.01836914 2.51171875 -0.03710938 C3.70861328 -0.04000977 3.70861328 -0.04000977 4.9296875 -0.04296875 C5.66171387 -0.04707764 6.39374023 -0.05118652 7.14794922 -0.05541992 C9.125 0.1875 9.125 0.1875 12.125 2.1875 C12.6875 4.875 12.6875 4.875 12.125 8.1875 C10.7421875 9.92578125 10.7421875 9.92578125 9.0625 11.6875 C7.38186833 13.39165586 7.38186833 13.39165586 6.125 15.1875 C6.28260028 18.30054814 6.28260028 18.30054814 7.125 21.1875 C6.1875 24.0625 6.1875 24.0625 5.125 26.1875 C3.145 26.1875 1.165 26.1875 -0.875 26.1875 C-0.875 23.2175 -0.875 20.2475 -0.875 17.1875 C-2.195 16.8575 -3.515 16.5275 -4.875 16.1875 C-4.545 14.5375 -4.215 12.8875 -3.875 11.1875 C-0.41 10.6925 -0.41 10.6925 3.125 10.1875 C3.785 8.5375 4.445 6.8875 5.125 5.1875 C1.825 5.1875 -1.475 5.1875 -4.875 5.1875 C-5.2875 6.445625 -5.7 7.70375 -6.125 9 C-7.93391693 14.4354059 -9.89569229 19.81222271 -11.875 25.1875 C-13.855 25.1875 -15.835 25.1875 -17.875 25.1875 C-10.73895193 0.00827346 -10.73895193 0.00827346 0 0 Z " fill="#FCF3F3" transform="translate(111.875,131.8125)"/>
<path d="M0 0 C0.77279297 -0.020625 1.54558594 -0.04125 2.34179688 -0.0625 C8.0967561 -0.10208699 8.0967561 -0.10208699 11.23046875 1.765625 C11.71128906 2.25546875 12.19210938 2.7453125 12.6875 3.25 C12.23711229 8.09166786 11.08777839 10.74668287 7.6875 14.25 C7.0275 14.25 6.3675 14.25 5.6875 14.25 C6.0175 14.91 6.3475 15.57 6.6875 16.25 C6.82107453 19.92329964 6.8546568 22.74852959 5.6875 26.25 C3.3775 26.25 1.0675 26.25 -1.3125 26.25 C-0.9825 23.61 -0.6525 20.97 -0.3125 18.25 C-2.7875 17.26 -2.7875 17.26 -5.3125 16.25 C-4.6525 14.6 -3.9925 12.95 -3.3125 11.25 C0.1525 10.755 0.1525 10.755 3.6875 10.25 C4.0175 8.93 4.3475 7.61 4.6875 6.25 C1.7175 6.25 -1.2525 6.25 -4.3125 6.25 C-6.6225 12.52 -8.9325 18.79 -11.3125 25.25 C-13.2925 25.25 -15.2725 25.25 -17.3125 25.25 C-16.67440624 19.76416613 -14.84399832 15.02440444 -12.8125 9.9375 C-12.33103516 8.70290039 -12.33103516 8.70290039 -11.83984375 7.44335938 C-8.99115065 0.21435367 -7.8759937 0.05177317 0 0 Z " fill="#FCF1F1" transform="translate(84.3125,131.75)"/>
<path d="M0 0 C0.79921875 0.00644531 1.5984375 0.01289063 2.421875 0.01953125 C3.246875 0.03628906 4.071875 0.05304688 4.921875 0.0703125 C5.76234375 0.07933594 6.6028125 0.08835938 7.46875 0.09765625 C9.53658104 0.12115433 11.60426495 0.15702342 13.671875 0.1953125 C13.011875 1.8453125 12.351875 3.4953125 11.671875 5.1953125 C3.751875 5.6903125 3.751875 5.6903125 -4.328125 6.1953125 C-4.658125 7.5153125 -4.988125 8.8353125 -5.328125 10.1953125 C-4.56886719 10.17210937 -3.80960938 10.14890625 -3.02734375 10.125 C-2.03347656 10.10695312 -1.03960937 10.08890625 -0.015625 10.0703125 C0.97050781 10.04710937 1.95664063 10.02390625 2.97265625 10 C5.671875 10.1953125 5.671875 10.1953125 8.671875 12.1953125 C9.22708883 16.39907439 9.13487286 18.48538245 6.796875 22.0703125 C4.60446331 24.26272419 3.68211263 25.13971954 0.60888672 25.30883789 C-0.21853027 25.30360107 -1.04594727 25.29836426 -1.8984375 25.29296875 C-2.79433594 25.28974609 -3.69023437 25.28652344 -4.61328125 25.28320312 C-5.55042969 25.27482422 -6.48757812 25.26644531 -7.453125 25.2578125 C-8.39800781 25.25330078 -9.34289062 25.24878906 -10.31640625 25.24414062 C-12.65370887 25.23233607 -14.99088561 25.21587009 -17.328125 25.1953125 C-16.998125 23.8753125 -16.668125 22.5553125 -16.328125 21.1953125 C-11.048125 20.8653125 -5.768125 20.5353125 -0.328125 20.1953125 C0.001875 18.8753125 0.331875 17.5553125 0.671875 16.1953125 C-0.09898437 16.14632812 -0.86984375 16.09734375 -1.6640625 16.046875 C-2.66695312 15.97210938 -3.66984375 15.89734375 -4.703125 15.8203125 C-6.19972656 15.71589844 -6.19972656 15.71589844 -7.7265625 15.609375 C-10.328125 15.1953125 -10.328125 15.1953125 -12.328125 13.1953125 C-12.831867 9.41724746 -12.64312779 7.69031688 -10.578125 4.4453125 C-7.26131939 1.12850689 -4.68339285 -0.06690561 0 0 Z " fill="#FCF4F4" transform="translate(189.328125,131.8046875)"/>
<path d="M0 0 C1.15699511 3.47098534 0.82954442 4.14733125 -0.43359375 7.44921875 C-0.9121582 8.72055664 -0.9121582 8.72055664 -1.40039062 10.01757812 C-1.91375977 11.33918945 -1.91375977 11.33918945 -2.4375 12.6875 C-2.77587891 13.58017578 -3.11425781 14.47285156 -3.46289062 15.39257812 C-4.30037307 17.59834174 -5.14632974 19.80046176 -6 22 C-7.32 22 -8.64 22 -10 22 C-10 21.34 -10 20.68 -10 20 C-10.77085938 20.02320313 -11.54171875 20.04640625 -12.3359375 20.0703125 C-13.33882812 20.08835938 -14.34171875 20.10640625 -15.375 20.125 C-16.37273437 20.14820313 -17.37046875 20.17140625 -18.3984375 20.1953125 C-21 20 -21 20 -23 18 C-23.38701386 13.12759477 -22.35620739 8.99219133 -19.5625 5 C-16.72166474 1.67414409 -16.24392852 1.13257659 -12.03125 0.68359375 C-10.8659375 0.60238281 -9.700625 0.52117187 -8.5 0.4375 C-6.75203125 0.31181641 -6.75203125 0.31181641 -4.96875 0.18359375 C-3.31452998 0.0812933 -1.65738024 0 0 0 Z " fill="#D82E2E" transform="translate(87,169)"/>
<path d="M0 0 C-0.33 1.65 -0.66 3.3 -1 5 C-2.24716797 5.09087891 -2.24716797 5.09087891 -3.51953125 5.18359375 C-5.14955078 5.30927734 -5.14955078 5.30927734 -6.8125 5.4375 C-7.89144531 5.51871094 -8.97039062 5.59992188 -10.08203125 5.68359375 C-13.05989905 5.90212461 -13.05989905 5.90212461 -16 7 C-16 7.66 -16 8.32 -16 9 C-11.71 9.33 -7.42 9.66 -3 10 C-3.66 11.65 -4.32 13.3 -5 15 C-9.62 15.33 -14.24 15.66 -19 16 C-18.67 17.32 -18.34 18.64 -18 20 C-14.37 20.33 -10.74 20.66 -7 21 C-7.33 22.32 -7.66 23.64 -8 25 C-10.43816585 25.0809723 -12.87364384 25.14046972 -15.3125 25.1875 C-16.34793945 25.22520508 -16.34793945 25.22520508 -17.40429688 25.26367188 C-22.49084781 25.33739 -22.49084781 25.33739 -24.9453125 23.7109375 C-26.88764509 20.56004241 -26.71462038 17.48523873 -26 14 C-23.7061576 8.57449333 -20.67818699 3.18610185 -15.2109375 0.5390625 C-10.24198927 -0.67244785 -5.06971341 -0.27445065 0 0 Z " fill="#FCF4F4" transform="translate(149,132)"/>
<path d="M0 0 C1.76923828 0.01353516 1.76923828 0.01353516 3.57421875 0.02734375 C4.47785156 0.03894531 5.38148437 0.05054688 6.3125 0.0625 C5.9825 1.7125 5.6525 3.3625 5.3125 5.0625 C4.08273438 5.10117188 4.08273438 5.10117188 2.828125 5.140625 C1.21164063 5.22570312 1.21164063 5.22570312 -0.4375 5.3125 C-2.03851563 5.38210937 -2.03851563 5.38210937 -3.671875 5.453125 C-7.24992853 6.17615136 -8.41624081 7.27074391 -10.6875 10.0625 C-12.66270304 13.12406471 -12.9812905 15.43908385 -12.6875 19.0625 C-10.94793342 20.80206658 -8.4938378 20.43440386 -6.125 20.625 C-5.11308594 20.70878906 -4.10117187 20.79257813 -3.05859375 20.87890625 C-1.88490234 20.96978516 -1.88490234 20.96978516 -0.6875 21.0625 C-1.6775 23.5375 -1.6775 23.5375 -2.6875 26.0625 C-4.93643954 26.17073773 -7.18687575 26.24819645 -9.4375 26.3125 C-11.31695313 26.38210937 -11.31695313 26.38210937 -13.234375 26.453125 C-16.6875 26.0625 -16.6875 26.0625 -19.13671875 24.3125 C-21.38272146 21.05381596 -20.97868721 19.21465292 -20.36328125 15.44140625 C-18.61934163 9.30233557 -15.01226607 4.56563557 -9.6875 1.0625 C-6.26517028 -0.07827657 -3.60076783 -0.03565117 0 0 Z " fill="#FCF2F2" transform="translate(38.6875,131.9375)"/>
<path d="M0 0 C0.99 0 1.98 0 3 0 C2.69078116 1.45903258 2.37751201 2.91720722 2.0625 4.375 C1.88847656 5.18710938 1.71445313 5.99921875 1.53515625 6.8359375 C1 9 1 9 0 11 C4.62 11 9.24 11 14 11 C14.66 8.03 15.32 5.06 16 2 C17.65 1.67 19.3 1.34 21 1 C20.05065965 4.34970496 19.03401499 7.67549762 18 11 C17.62488281 12.23621094 17.24976562 13.47242188 16.86328125 14.74609375 C16.45239016 16.01883418 16.03964145 17.29097645 15.625 18.5625 C15.24601562 19.76003906 14.86703125 20.95757812 14.4765625 22.19140625 C13.98929688 23.11824219 13.50203125 24.04507813 13 25 C11.35 25.33 9.7 25.66 8 26 C8.99 22.7 9.98 19.4 11 16 C6.71 15.67 2.42 15.34 -2 15 C-2.99 18.3 -3.98 21.6 -5 25 C-6.65 25.33 -8.3 25.66 -10 26 C-9.09102442 23.16399619 -8.17309278 20.33140959 -7.25 17.5 C-6.87101562 16.31277344 -6.87101562 16.31277344 -6.484375 15.1015625 C-4.7422574 9.78810383 -2.60963705 4.94696415 0 0 Z " fill="#FBEDED" transform="translate(90,166)"/>
<path d="M0 0 C0.99386719 0.00902344 1.98773438 0.01804688 3.01171875 0.02734375 C4.15060547 0.04474609 4.15060547 0.04474609 5.3125 0.0625 C5.3125 1.0525 5.3125 2.0425 5.3125 3.0625 C4.50425781 3.07667969 3.69601563 3.09085938 2.86328125 3.10546875 C-4.11297244 3.13936455 -4.11297244 3.13936455 -9.875 6.5 C-11.66876203 8.89886741 -11.66876203 8.89886741 -12.6875 11.0625 C-7.7375 11.0625 -2.7875 11.0625 2.3125 11.0625 C1.9825 12.0525 1.6525 13.0425 1.3125 14.0625 C-3.9675 14.0625 -9.2475 14.0625 -14.6875 14.0625 C-14.3575 16.3725 -14.0275 18.6825 -13.6875 21.0625 C-10.0575 21.3925 -6.4275 21.7225 -2.6875 22.0625 C-2.6875 23.0525 -2.6875 24.0425 -2.6875 25.0625 C-4.95774968 25.14347324 -7.22882075 25.20167704 -9.5 25.25 C-11.39685547 25.30220703 -11.39685547 25.30220703 -13.33203125 25.35546875 C-16.6875 25.0625 -16.6875 25.0625 -18.60546875 23.8125 C-20.71229083 20.40507656 -20.34664858 16.9054606 -19.6875 13.0625 C-17.37933256 7.44004085 -14.05111972 3.97751072 -8.6875 1.0625 C-5.53819107 0.01273036 -3.29935544 -0.03881595 0 0 Z " fill="#FCF5F5" transform="translate(155.6875,166.9375)"/>
<path d="M0 0 C1.2065625 0.433125 1.2065625 0.433125 2.4375 0.875 C2.4375 1.535 2.4375 2.195 2.4375 2.875 C1.756875 3.02195312 1.07625 3.16890625 0.375 3.3203125 C-12.62773594 6.32892427 -24.57411794 10.92521346 -36.0859375 17.65234375 C-36.90320313 18.05582031 -37.72046875 18.45929687 -38.5625 18.875 C-39.2225 18.545 -39.8825 18.215 -40.5625 17.875 C-35.02937115 12.85162657 -29.27378785 8.33159201 -23.1875 4 C-21.97900391 3.12988281 -21.97900391 3.12988281 -20.74609375 2.2421875 C-12.68462789 -3.53722186 -9.44332225 -2.98210176 0 0 Z " fill="#FCF3F3" transform="translate(204.5625,45.125)"/>
<path d="M0 0 C-0.33 0.99 -0.66 1.98 -1 3 C-2.32064453 3.02126953 -2.32064453 3.02126953 -3.66796875 3.04296875 C-10.87054785 3.20493512 -10.87054785 3.20493512 -17.1875 6.25 C-20.29448095 10.96404007 -21.38830288 14.30489117 -21 20 C-19.26043342 21.73956658 -16.8063378 21.37190386 -14.4375 21.5625 C-13.42558594 21.64628906 -12.41367188 21.73007813 -11.37109375 21.81640625 C-10.19740234 21.90728516 -10.19740234 21.90728516 -9 22 C-9 22.99 -9 23.98 -9 25 C-11.24893954 25.10823773 -13.49937575 25.18569645 -15.75 25.25 C-17.62945312 25.31960937 -17.62945312 25.31960937 -19.546875 25.390625 C-23 25 -23 25 -25.453125 23.2578125 C-27.70997396 19.96372487 -27.23554534 18.03596277 -26.6015625 14.23828125 C-25.68855175 10.84116982 -24.26637725 8.6838678 -22 6 C-21.57332031 5.43925781 -21.14664063 4.87851563 -20.70703125 4.30078125 C-15.16275757 -1.8135977 -7.56539764 -0.52578053 0 0 Z " fill="#FCF4F4" transform="translate(86,167)"/>
<path d="M0 0 C0.33 0.33 0.66 0.66 1 1 C0.8985109 6.88636779 -0.17476423 10.38957932 -4.23828125 14.71875 C-7.12392978 16.81740348 -9.59588378 16.53397901 -13 16 C-13.33 15.67 -13.66 15.34 -14 15 C-13.70139265 9.12738875 -12.78692144 5.704963 -9 1 C-6.01787087 -0.49106457 -3.28390342 -0.11941467 0 0 Z " fill="#D82E2E" transform="translate(167,137)"/>
<path d="M0 0 C0.33 0.33 0.66 0.66 1 1 C0.70139265 6.87261125 -0.21307856 10.295037 -4 15 C-6.95664519 16.4783226 -9.74229737 16.06032783 -13 16 C-14.05263755 12.84208736 -14.30577317 10.74119417 -13.0234375 7.6328125 C-9.35902132 0.92543083 -7.90162872 -0.28733195 0 0 Z " fill="#D82E2E" transform="translate(61,137)"/>
<path d="M0 0 C1.32 0 2.64 0 4 0 C3.54287762 1.54202616 3.08423653 3.08360214 2.625 4.625 C2.21701172 5.99591797 2.21701172 5.99591797 1.80078125 7.39453125 C1.18941287 9.38371519 0.51476207 11.35355844 -0.1875 13.3125 C-1.00821578 16.02717529 -1.16573548 18.1824969 -1 21 C1.97 21.33 4.94 21.66 8 22 C8 22.99 8 23.98 8 25 C6.04196493 25.05389087 4.08351091 25.09274217 2.125 25.125 C0.48917969 25.15980469 0.48917969 25.15980469 -1.1796875 25.1953125 C-4 25 -4 25 -6 23 C-6.5883068 17.16840886 -5.14850166 12.8514917 -3 7.5625 C-2.71382813 6.83095703 -2.42765625 6.09941406 -2.1328125 5.34570312 C-1.43239577 3.55964046 -0.71766189 1.77920344 0 0 Z " fill="#FCF5F5" transform="translate(126,167)"/>
<path d="M0 0 C1.32 0.33 2.64 0.66 4 1 C-0.455 12.88 -0.455 12.88 -5 25 C-6.32 25 -7.64 25 -9 25 C-8.36190624 19.51416613 -6.53149832 14.77440444 -4.5 9.6875 C-4.01853516 8.45290039 -4.01853516 8.45290039 -3.52734375 7.19335938 C-1.14318665 1.14318665 -1.14318665 1.14318665 0 0 Z " fill="#FCF1F1" transform="translate(117,167)"/>
<path d="M0 0 C2.97 0 5.94 0 9 0 C9.33 0.99 9.66 1.98 10 3 C9.01 4.485 9.01 4.485 8 6 C6.2984375 6.2165625 6.2984375 6.2165625 4.5625 6.4375 C0.94569913 6.63544258 0.94569913 6.63544258 -0.9375 9.0625 C-1.288125 9.701875 -1.63875 10.34125 -2 11 C-3.14947895 7.44706507 -3.0868937 6.20023331 -1.5625 2.6875 C-1.046875 1.800625 -0.53125 0.91375 0 0 Z " fill="#D72626" transform="translate(80,137)"/>
<path d="M0 0 C3.3 0 6.6 0 10 0 C9.125 4.875 9.125 4.875 8 6 C5.66702567 6.04092937 3.33294775 6.04241723 1 6 C1 6.66 1 7.32 1 8 C0.01 7.67 -0.98 7.34 -2 7 C-1.125 2.25 -1.125 2.25 0 0 Z " fill="#D72626" transform="translate(107,137)"/>
<path d="M0 0 C0.33 0.99 0.66 1.98 1 3 C-4.02296004 4.13016601 -7.97874074 3.77916092 -13 3 C-11.68 2.67 -10.36 2.34 -9 2 C-9 1.34 -9 0.68 -9 0 C-5.52176885 -1.15941038 -3.54104422 -0.70820884 0 0 Z " fill="#DB3F3F" transform="translate(63,82)"/>
<path d="M0 0 C1.27609323 0.90933009 2.54565553 1.82782853 3.8125 2.75 C4.87404297 3.51570313 4.87404297 3.51570313 5.95703125 4.296875 C8.07342379 6.06120989 9.59441511 7.62778363 11 10 C10.67 10.99 10.34 11.98 10 13 C9.52949219 12.44570312 9.05898437 11.89140625 8.57421875 11.3203125 C7.95160156 10.59585938 7.32898438 9.87140625 6.6875 9.125 C6.07261719 8.40570313 5.45773438 7.68640625 4.82421875 6.9453125 C2.9587676 4.80820669 2.9587676 4.80820669 0 3 C0 2.01 0 1.02 0 0 Z " fill="#DB3C3C" transform="translate(104,100)"/>
<path d="M0 0 C0.99 0.33 1.98 0.66 3 1 C1.02 3.31 -0.96 5.62 -3 8 C-3.66 7.67 -4.32 7.34 -5 7 C-3.35 4.69 -1.7 2.38 0 0 Z " fill="#DA3939" transform="translate(70,171)"/>
<path d="M0 0 C0.66 0.99 1.32 1.98 2 3 C0.68 4.65 -0.64 6.3 -2 8 C-2.66 7.67 -3.32 7.34 -4 7 C-3.34 6.34 -2.68 5.68 -2 5 C-2 4.01 -2 3.02 -2 2 C-1.34 1.34 -0.68 0.68 0 0 Z " fill="#E26C6C" transform="translate(164,59)"/>
<path d="M0 0 C0 0.66 0 1.32 0 2 C-2.375 3.0625 -2.375 3.0625 -5 4 C-5.66 3.67 -6.32 3.34 -7 3 C-7 2.34 -7 1.68 -7 1 C-4.53721199 -0.231394 -2.7204945 -0.07159196 0 0 Z " fill="#DA3737" transform="translate(95,55)"/>
<path d="M0 0 C0 0.66 0 1.32 0 2 C-5.75 3.125 -5.75 3.125 -8 2 C-8 1.34 -8 0.68 -8 0 C-4.71303767 -0.79953138 -3.28976808 -1.09658936 0 0 Z " fill="#DA3B3B" transform="translate(135,41)"/>
</svg>
