<?xml version="1.0" encoding="UTF-8"?>
<svg version="1.1" xmlns="http://www.w3.org/2000/svg" width="400" height="340">
<path d="M0 0 C27.06 0 54.12 0 82 0 C82 27.06 82 54.12 82 82 C55.27 82.33 28.54 82.66 1 83 C-2.41617737 91.54044342 -1.69714367 98.97145404 1.7421875 107.4375 C4.92049742 113.91256618 9.59048865 118.81643082 14.77734375 123.75 C16.6670122 125.66291569 18.40660741 127.61301223 20.15600586 129.65161133 C23.84812658 133.88442068 27.74084773 137.86920664 31.7265625 141.82421875 C32.43726898 142.53351028 33.14797546 143.24280182 33.88021851 143.97358704 C36.12611477 146.21394485 38.37547627 148.45078512 40.625 150.6875 C42.14085837 152.1983336 43.65648534 153.7093994 45.171875 155.22070312 C47.95120954 157.99191632 50.73185116 160.76180255 53.51416016 163.5300293 C76.46068808 186.36298446 89.50390118 214.62014825 90.0390625 247.39208984 C89.96056683 271.82877264 81.43810792 294.11235165 64.8515625 312.17578125 C44.46529606 332.26098469 17.03175003 340.25993964 -10.93383789 340.2487793 C-29.46678122 340.04547418 -46.44350846 335.43712891 -63.375 328.125 C-64.44427734 327.67024292 -64.44427734 327.67024292 -65.53515625 327.20629883 C-67.7391655 326.21709181 -69.85663524 325.11461041 -72 324 C-73.27617188 323.42267876 -73.27617188 323.42267876 -74.578125 322.83369446 C-77.65056693 321.16020152 -79.71906613 319.67107093 -82 317 C-83.41227463 311.44242186 -83.16877364 306.04444849 -82.9765625 300.34765625 C-82.95789147 298.72102724 -82.94366617 297.09434166 -82.9336853 295.46763611 C-82.89565355 291.20326158 -82.79757312 286.9423393 -82.68664551 282.67932129 C-82.58401004 278.3224966 -82.53860559 273.96510918 -82.48828125 269.60742188 C-82.38130175 261.07003699 -82.21083209 252.53544888 -82 244 C-77.55279182 244.80110603 -73.7192655 246.32262746 -69.625 248.1875 C-68.18951431 248.82582284 -66.7532989 249.46250688 -65.31640625 250.09765625 C-64.59340332 250.41750488 -63.87040039 250.73735352 -63.12548828 251.06689453 C-33.68319139 264.0811078 -33.68319139 264.0811078 -2.375 262.875 C3.53993976 259.58892235 7.71023206 256.87976485 9.9375 250.25 C12.98000303 237.47148728 9.97959528 225.51747849 3.3125 214.3125 C-6.0493493 200.08869581 -17.35182091 189.29474548 -30.98828125 179.3125 C-36.31606059 175.22164998 -41.13774384 170.62556775 -46 166 C-46.79277344 165.28328125 -47.58554687 164.5665625 -48.40234375 163.828125 C-63.96370461 149.27866282 -72.05134698 130.37655444 -72.97265625 109.27734375 C-73.18731326 99.62663024 -71.333353 90.33341202 -69 81 C-46.23 81 -23.46 81 0 81 C0 54.27 0 27.54 0 0 Z " fill="#0060A0" transform="translate(82,0)"/>
<path d="M0 0 C27.39 0 54.78 0 83 0 C83 79.2 83 158.4 83 240 C55.61 240 28.22 240 0 240 C0 160.8 0 81.6 0 0 Z " fill="#00609F" transform="translate(200,100)"/>
<path d="M0 0 C27.06 0 54.12 0 82 0 C82 79.2 82 158.4 82 240 C54.94 240 27.88 240 0 240 C0 160.8 0 81.6 0 0 Z " fill="#00619F" transform="translate(318,100)"/>
<path d="M0 0 C8.57994714 6.06488726 13.98091842 14.32679509 16.51953125 24.4609375 C16.74640625 25.2859375 16.97328125 26.1109375 17.20703125 26.9609375 C18.74111521 39.23360919 15.91074074 50.4937484 8.51953125 60.4609375 C2.31911683 68.22879449 -6.48524749 74.08640782 -16.48046875 75.4609375 C-30.30189812 76.37537046 -41.40838255 74.45294488 -52.48046875 65.4609375 C-59.90892481 58.57396343 -65.00810285 48.35241855 -65.69921875 38.26953125 C-66.02903592 25.53034319 -63.20184485 14.81324738 -54.44140625 5.23046875 C-39.15278198 -9.1667693 -17.76805302 -11.02458723 0 0 Z " fill="#EA510C" transform="translate(265.48046875,6.5390625)"/>
<path d="M0 0 C1.11761719 0.65162109 1.11761719 0.65162109 2.2578125 1.31640625 C7.93166579 5.10257071 11.55711685 10.18632136 15 16 C15.43699219 16.72574219 15.87398438 17.45148437 16.32421875 18.19921875 C21.03895212 27.67831426 20.6678883 41.28116378 17.375 51.1875 C12.8854192 61.34399921 5.14652389 69.34270945 -4.84765625 74.17578125 C-15.65948125 78.31606269 -27.80400279 78.86252654 -38.54296875 74.2578125 C-50.95553764 67.90352445 -58.22353394 59.44966779 -62.61328125 46.140625 C-64.62308234 35.01566542 -63.45584728 23.19703941 -57.45703125 13.5078125 C-44.06307261 -4.69816332 -20.3100991 -11.92664698 0 0 Z " fill="#EA510C" transform="translate(381,5)"/>
</svg>
